<svg xmlns="http://www.w3.org/2000/svg" viewBox="0 0 900 440" font-family="ui-monospace,SFMono-Regular,Menlo,monospace" font-size="11">

  <rect width="900" height="440" fill="#f8f9fa" rx="8"/>
  <text x="450" y="28" text-anchor="middle" font-size="15" font-weight="bold" fill="#333">Line-count Breakdown</text>

  <!-- ── Left: item.py before vs after bar chart ── -->
  <!-- Y axis -->
  <line x1="90" y1="48" x2="90" y2="320" stroke="#ccc" stroke-width="1.5"/>
  <line x1="90" y1="320" x2="380" y2="320" stroke="#ccc" stroke-width="1.5"/>

  <!-- gridlines  0–3200, 400 steps.  320px height → 1px ≈ 9.4 lines, 400 lines ≈ 42.2px -->
  <!-- Scale: 320px / 3017 ≈ 0.1061 px/line -->
  <text x="82" y="324" text-anchor="end" font-size="10" fill="#666">0</text>
  <line x1="90" y1="278" x2="380" y2="278" stroke="#e0e0e0" stroke-dasharray="4,3"/>
  <text x="82" y="282" text-anchor="end" font-size="10" fill="#666">400</text>
  <line x1="90" y1="235" x2="380" y2="235" stroke="#e0e0e0" stroke-dasharray="4,3"/>
  <text x="82" y="239" text-anchor="end" font-size="10" fill="#666">800</text>
  <line x1="90" y1="193" x2="380" y2="193" stroke="#e0e0e0" stroke-dasharray="4,3"/>
  <text x="82" y="197" text-anchor="end" font-size="10" fill="#666">1200</text>
  <line x1="90" y1="150" x2="380" y2="150" stroke="#e0e0e0" stroke-dasharray="4,3"/>
  <text x="82" y="154" text-anchor="end" font-size="10" fill="#666">1600</text>
  <line x1="90" y1="108" x2="380" y2="108" stroke="#e0e0e0" stroke-dasharray="4,3"/>
  <text x="82" y="112" text-anchor="end" font-size="10" fill="#666">2000</text>
  <line x1="90" y1="65" x2="380" y2="65" stroke="#e0e0e0" stroke-dasharray="4,3"/>
  <text x="82" y="69" text-anchor="end" font-size="10" fill="#666">2400</text>
  <line x1="90" y1="48" x2="380" y2="48" stroke="#e0e0e0" stroke-dasharray="4,3"/>
  <text x="82" y="52" text-anchor="end" font-size="10" fill="#666">2800</text>

  <!-- BEFORE bar: item.py 3017 lines → full 320px, y=0 -->
  <!-- 3017 * 0.1061 = 320 -->
  <rect x="120" y="0" width="80" height="320" rx="3" fill="#c0392b"/>
  <text x="160" y="22" text-anchor="middle" font-size="12" font-weight="bold" fill="#fff">3 017</text>
  <text x="160" y="37" text-anchor="middle" font-size="10" fill="#fcc">lines</text>
  <text x="160" y="337" text-anchor="middle" font-size="10" fill="#555">item.py</text>
  <text x="160" y="350" text-anchor="middle" font-size="10" fill="#555">BEFORE</text>

  <!-- AFTER bar: item.py 1835 → 1835 * 0.1061 = 194.7 ≈ 195px → y = 320-195 = 125 -->
  <rect x="240" y="125" width="80" height="195" rx="3" fill="#2980b9"/>
  <text x="280" y="148" text-anchor="middle" font-size="12" font-weight="bold" fill="#fff">1 835</text>
  <text x="280" y="163" text-anchor="middle" font-size="10" fill="#cde">lines</text>
  <text x="280" y="337" text-anchor="middle" font-size="10" fill="#555">item.py</text>
  <text x="280" y="350" text-anchor="middle" font-size="10" fill="#555">AFTER</text>

  <!-- −39% label -->
  <text x="198" y="130" font-size="20" fill="#e74c3c" font-weight="bold">−39 %</text>
  <line x1="196" y1="134" x2="160" y2="175" stroke="#e74c3c" stroke-width="1" stroke-dasharray="3,2"/>
  <line x1="208" y1="134" x2="240" y2="175" stroke="#e74c3c" stroke-width="1" stroke-dasharray="3,2"/>

  <!-- Sub-modules label below after bar -->
  <text x="280" y="368" text-anchor="middle" font-size="9" fill="#27ae60">+ 10 sub-modules</text>
  <text x="280" y="380" text-anchor="middle" font-size="9" fill="#27ae60">2 430 lines</text>

  <!-- Legend left -->
  <rect x="90" y="400" width="12" height="12" fill="#c0392b" rx="2"/>
  <text x="106" y="411" font-size="10" fill="#333">item.py before (3 017)</text>
  <rect x="230" y="400" width="12" height="12" fill="#2980b9" rx="2"/>
  <text x="246" y="411" font-size="10" fill="#333">item.py after (1 835)</text>

  <!-- ── Right: per-module bar chart ── -->
  <text x="640" y="48" text-anchor="middle" font-size="13" font-weight="bold" fill="#333">Sub-module Sizes</text>

  <!-- max = 326 (_parsing.py), bar max = 210px  → scale: 210/326 = 0.6442 px/line -->

  <!-- Round 1 modules (solid green) -->
  <text x="400" y="76"  font-size="10" fill="#555">_parsing.py</text>
  <rect x="510" y="62"  width="210" height="16" rx="2" fill="#1e8449"/>
  <text x="726" y="76"  font-size="10" fill="#1e8449" font-weight="bold">326</text>

  <text x="400" y="98"  font-size="10" fill="#555">_eval.py</text>
  <rect x="510" y="84"  width="186" height="16" rx="2" fill="#27ae60"/>
  <text x="726" y="98"  font-size="10" fill="#27ae60" font-weight="bold">289</text>

  <text x="400" y="120" font-size="10" fill="#555">_logchange.py</text>
  <rect x="510" y="106" width="184" height="16" rx="2" fill="#27ae60"/>
  <text x="726" y="120" font-size="10" fill="#27ae60" font-weight="bold">286</text>

  <text x="400" y="142" font-size="10" fill="#555">_hysteresis.py</text>
  <rect x="510" y="128" width="184" height="16" rx="2" fill="#27ae60"/>
  <text x="726" y="142" font-size="10" fill="#27ae60" font-weight="bold">286</text>

  <text x="400" y="164" font-size="10" fill="#555">_autotimer.py</text>
  <rect x="510" y="150" width="182" height="16" rx="2" fill="#27ae60"/>
  <text x="726" y="164" font-size="10" fill="#27ae60" font-weight="bold">282</text>

  <text x="400" y="186" font-size="10" fill="#555">_pathresolution.py</text>
  <rect x="510" y="172" width="178" height="16" rx="2" fill="#27ae60"/>
  <text x="726" y="186" font-size="10" fill="#27ae60" font-weight="bold">277</text>

  <text x="400" y="208" font-size="10" fill="#555">_history.py</text>
  <rect x="510" y="194" width="120" height="16" rx="2" fill="#27ae60"/>
  <text x="726" y="208" font-size="10" fill="#27ae60" font-weight="bold">187</text>

  <text x="400" y="230" font-size="10" fill="#555">_casting.py</text>
  <rect x="510" y="216" width="118" height="16" rx="2" fill="#1e8449"/>
  <text x="726" y="230" font-size="10" fill="#1e8449" font-weight="bold">184</text>

  <text x="400" y="252" font-size="10" fill="#555">_typehandler.py</text>
  <rect x="510" y="238" width="101" height="16" rx="2" fill="#27ae60"/>
  <text x="726" y="252" font-size="10" fill="#27ae60" font-weight="bold">157</text>

  <text x="400" y="274" font-size="10" fill="#555">_triggers.py</text>
  <rect x="510" y="260" width="100" height="16" rx="2" fill="#1e8449"/>
  <text x="726" y="274" font-size="10" fill="#1e8449" font-weight="bold">156</text>

  <line x1="400" y1="290" x2="760" y2="290" stroke="#ccc"/>
  <text x="400" y="308" font-size="11" font-weight="bold" fill="#333">Total extracted:</text>
  <text x="710" y="308" font-size="11" font-weight="bold" fill="#27ae60">2 430 lines</text>

  <!-- Legend right -->
  <rect x="400" y="400" width="12" height="12" fill="#27ae60" rx="2"/>
  <text x="416" y="411" font-size="10" fill="#333">Round 1 (7 modules)</text>
  <rect x="560" y="400" width="12" height="12" fill="#1e8449" rx="2"/>
  <text x="576" y="411" font-size="10" fill="#333">Round 2 (3 modules)</text>

  <!-- Key facts box -->
  <rect x="400" y="322" width="360" height="66" rx="6" fill="#fff" stroke="#ddd"/>
  <text x="580" y="342" text-anchor="middle" font-size="12" font-weight="bold" fill="#333">Key Facts</text>
  <text x="410" y="360" font-size="11" fill="#555">• item.py: 3 017 → 1 835 lines (−39 %)</text>
  <text x="410" y="376" font-size="11" fill="#555">• 10 focused sub-modules  ·  1 009 tests  ·  0 regressions</text>
</svg>
